<?xml version="1.0" encoding="utf-8"?>
<!-- Generator: Adobe Illustrator 24.3.0, SVG Export Plug-In . SVG Version: 6.00 Build 0)  -->
<svg version="1.1" id="Layer_1" xmlns="http://www.w3.org/2000/svg" xmlns:xlink="http://www.w3.org/1999/xlink" x="0px" y="0px"
	 viewBox="0 0 75 75" style="enable-background:new 0 0 75 75;" xml:space="preserve">
<g id="Layer_2_1_">
	<g id="Layer_8">
		<path d="M32.4,25.7V31h-3.9v6.5h3.9v19.3h8V37.5h5.4c0,0,0.5-3.1,0.8-6.5h-6.1v-4.4c0.2-0.8,0.9-1.5,1.7-1.5h4.4v-6.8h-5.9
			C32.2,18.2,32.4,24.7,32.4,25.7z"/>
		<path d="M37.5,75C16.8,75,0,58.2,0,37.5S16.8,0,37.5,0S75,16.8,75,37.5S58.2,75,37.5,75z M37.5,3C18.5,3,3,18.5,3,37.5
			S18.5,72,37.5,72S72,56.5,72,37.5S56.5,3,37.5,3z"/>
	</g>
</g>
</svg>
