<?xml version="1.0" encoding="utf-8"?>
<!-- Generator: Adobe Illustrator 24.3.0, SVG Export Plug-In . SVG Version: 6.00 Build 0)  -->
<svg version="1.1" id="Layer_1" xmlns="http://www.w3.org/2000/svg" xmlns:xlink="http://www.w3.org/1999/xlink" x="0px" y="0px"
	 viewBox="0 0 75 75" style="enable-background:new 0 0 75 75;" xml:space="preserve">
<g id="Layer_2_1_">
	<g id="Layer_8">
		<path d="M37.5,75C16.8,75,0,58.2,0,37.5S16.8,0,37.5,0S75,16.8,75,37.5S58.2,75,37.5,75z M37.5,3C18.5,3,3,18.5,3,37.5
			S18.5,72,37.5,72S72,56.5,72,37.5S56.5,3,37.5,3z"/>
		<g id="Page-1">
			<g id="Artboard-4">
				<g id="_357">
					<path id="Shape" d="M54,29.7c0-0.4,0.1-2.2,0.1-3.3c1.7-1.1,2.4-3.5,3-5.6c-1.7,0.9-3.5,1.5-5.4,1.8c-2.5-2.9-6.7-3.6-10-1.8
						c-3.4,2-5.1,6-4.2,9.9c-6.8-0.4-13.1-3.8-17.2-9.3c-2.2,4-1.1,9.1,2.6,11.9c-1.3,0-2.7-0.4-3.8-1.1v0.1
						c-0.1,4.1,2.7,7.8,6.7,8.7c-1.2,0.4-2.5,0.4-3.8,0.2c1,3.5,4.1,6,7.8,6.2c-2.9,2.5-6.6,3.8-10.4,3.8c-0.7,0-1.3,0-2-0.1
						c3.8,2.6,8.2,4,12.8,4C45.5,55,54,41.5,54,29.7z"/>
				</g>
			</g>
		</g>
	</g>
</g>
</svg>
